<?xml version="1.0" standalone="no"?>
<!DOCTYPE svg PUBLIC "-//W3C//DTD SVG 20010904//EN"
 "http://www.w3.org/TR/2001/REC-SVG-20010904/DTD/svg10.dtd">
<svg version="1.0" xmlns="http://www.w3.org/2000/svg"
 width="232.000000pt" height="232.000000pt" viewBox="0 0 232.000000 232.000000"
 preserveAspectRatio="xMidYMid meet">

<g transform="translate(0.000000,232.000000) scale(0.100000,-0.100000)"
fill="#FFFFFF" stroke="none">
<path d="M910 1745 l0 -35 53 0 c28 0 58 -4 64 -8 9 -6 13 -61 15 -197 l3
-190 45 0 45 0 3 190 c2 136 6 191 15 197 6 4 36 8 65 8 l52 0 0 35 0 35 -180
0 -180 0 0 -35z"/>
<path d="M1350 1545 l0 -235 45 0 45 0 0 66 c0 56 4 70 28 100 15 18 32 34 37
34 6 0 34 -43 63 -96 30 -52 60 -98 67 -100 7 -3 31 -4 53 -2 l40 3 -79 135
c-44 74 -79 140 -79 146 0 6 29 49 64 95 l65 84 -46 3 c-54 4 -57 1 -138 -107
-33 -44 -63 -80 -67 -81 -5 0 -8 43 -8 95 l0 95 -45 0 -45 0 0 -235z"/>
<path d="M1790 1545 l0 -235 145 0 145 0 0 40 0 39 -97 3 -98 3 -3 54 c-2 37
1 57 10 62 7 5 46 9 86 9 l72 0 0 35 c0 40 -8 43 -105 47 l-60 3 -3 38 c-5 59
7 67 110 67 l89 0 -3 33 -3 32 -142 3 -143 3 0 -236z"/>
<path d="M365 1425 c-54 -53 -16 -145 60 -145 49 0 85 36 85 85 0 49 -36 85
-85 85 -25 0 -44 -8 -60 -25z"/>
<path d="M1745 1035 c-54 -53 -16 -145 60 -145 49 0 85 36 85 85 0 25 -8 44
-25 60 -16 17 -35 25 -60 25 -25 0 -44 -8 -60 -25z"/>
<path d="M534 1005 c-3 -14 -1 -78 5 -142 6 -65 13 -170 16 -233 8 -141 10
-150 41 -150 21 0 30 12 63 77 69 142 96 188 128 228 29 34 33 37 39 19 4 -10
24 -59 44 -109 53 -126 70 -180 70 -220 0 -19 8 -50 17 -70 32 -66 85 -39 168
87 27 40 71 98 99 128 114 122 148 168 141 190 -13 42 -48 24 -121 -62 -38
-45 -81 -94 -95 -109 -15 -15 -48 -59 -74 -98 -27 -40 -52 -74 -57 -77 -4 -3
-8 10 -8 28 -1 35 -14 77 -74 228 -48 121 -88 198 -103 205 -20 7 -39 -4 -51
-30 -6 -13 -27 -42 -47 -63 -19 -22 -44 -59 -55 -83 -11 -24 -29 -57 -40 -74
l-20 -30 0 67 c0 66 -16 251 -26 296 -7 32 -51 31 -60 -3z"/>
</g>
</svg>
